# Approximate sci-fi capital ship reconstructed from one reference image
# Units are arbitrary; X=width, Y=length, Z=height
mtllib capital_ship.mtl
o Capital_Ship
g Main_Hull
usemtl HullDark
v -2.4500 -10.0000 -0.7500
v 2.4500 -10.0000 -0.7500
v -2.8500 -8.4000 -0.7500
v 2.8500 -8.4000 -0.7500
v -3.1000 -4.0000 -0.7500
v 3.1000 -4.0000 -0.7500
v -2.7500 2.0000 -0.7500
v 2.7500 2.0000 -0.7500
v -1.7500 7.0000 -0.7500
v 1.7500 7.0000 -0.7500
v -0.1000 10.5000 -0.7500
v 0.1000 10.5000 -0.7500
v -2.4500 -10.0000 0.1500
v 2.4500 -10.0000 0.1500
v -2.8500 -8.4000 0.1500
v 2.8500 -8.4000 0.1500
v -3.1000 -4.0000 0.1500
v 3.1000 -4.0000 0.1500
v -2.7500 2.0000 0.1500
v 2.7500 2.0000 0.1500
v -1.7500 7.0000 0.1500
v 1.7500 7.0000 0.1500
v -0.1000 10.5000 0.1500
v 0.1000 10.5000 0.1500
f 11 9 7 5 3 1
f 2 4 6 8 10 12
f 13 15 17 19 21 23
f 1 2 4 3
f 13 15 16 14
f 1 3 15 13
f 2 14 16 4
f 3 4 6 5
f 15 17 18 16
f 3 5 17 15
f 4 16 18 6
f 5 6 8 7
f 17 19 20 18
f 5 7 19 17
f 6 18 20 8
f 7 8 10 9
f 19 21 22 20
f 7 9 21 19
f 8 20 22 10
f 9 10 12 11
f 21 23 24 22
f 9 11 23 21
f 10 22 24 12
f 1 13 14 2
f 11 12 24 23
g Upper_Deck
usemtl Hull
v -2.1500 -9.7000 0.1500
v 2.1500 -9.7000 0.1500
v -2.5500 -6.5000 0.1500
v 2.5500 -6.5000 0.1500
v -2.3500 -1.0000 0.1500
v 2.3500 -1.0000 0.1500
v -1.5500 5.5000 0.1500
v 1.5500 5.5000 0.1500
v -0.0800 10.0000 0.1500
v 0.0800 10.0000 0.1500
v -2.1500 -9.7000 0.4800
v 2.1500 -9.7000 0.4800
v -2.5500 -6.5000 0.4800
v 2.5500 -6.5000 0.4800
v -2.3500 -1.0000 0.4800
v 2.3500 -1.0000 0.4800
v -1.5500 5.5000 0.4800
v 1.5500 5.5000 0.4800
v -0.0800 10.0000 0.4800
v 0.0800 10.0000 0.4800
f 33 31 29 27 25
f 26 28 30 32 34
f 35 37 39 41 43
f 25 26 28 27
f 35 37 38 36
f 25 27 37 35
f 26 36 38 28
f 27 28 30 29
f 37 39 40 38
f 27 29 39 37
f 28 38 40 30
f 29 30 32 31
f 39 41 42 40
f 29 31 41 39
f 30 40 42 32
f 31 32 34 33
f 41 43 44 42
f 31 33 43 41
f 32 42 44 34
f 25 35 36 26
f 33 34 44 43
g Lower_Keel
usemtl HullDark
v -1.8500 -9.7000 -1.1200
v 1.8500 -9.7000 -1.1200
v -2.2500 -4.0000 -1.1200
v 2.2500 -4.0000 -1.1200
v -1.8000 3.0000 -1.1200
v 1.8000 3.0000 -1.1200
v -0.0500 9.2000 -1.1200
v 0.0500 9.2000 -1.1200
v -1.8500 -9.7000 -0.7500
v 1.8500 -9.7000 -0.7500
v -2.2500 -4.0000 -0.7500
v 2.2500 -4.0000 -0.7500
v -1.8000 3.0000 -0.7500
v 1.8000 3.0000 -0.7500
v -0.0500 9.2000 -0.7500
v 0.0500 9.2000 -0.7500
f 51 49 47 45
f 46 48 50 52
f 53 55 57 59
f 45 46 48 47
f 53 55 56 54
f 45 47 55 53
f 46 54 56 48
f 47 48 50 49
f 55 57 58 56
f 47 49 57 55
f 48 56 58 50
f 49 50 52 51
f 57 59 60 58
f 49 51 59 57
f 50 58 60 52
f 45 53 54 46
f 51 52 60 59
g Side_Trench_-1
usemtl Trench
v -2.8000 -7.8000 0.0500
v -2.4800 -7.8000 0.0500
v -2.4800 4.8000 0.0500
v -2.8000 4.8000 0.0500
v -2.8000 -7.8000 0.3100
v -2.4800 -7.8000 0.3100
v -2.4800 4.8000 0.3100
v -2.8000 4.8000 0.3100
f 61 64 63 62
f 65 66 67 68
f 61 62 66 65
f 62 63 67 66
f 63 64 68 67
f 64 61 65 68
g Outer_Rail_-1
usemtl HullLight
v -3.0000 -6.4000 0.1600
v -2.8200 -6.4000 0.1600
v -2.8200 1.5000 0.1600
v -3.0000 1.5000 0.1600
v -3.0000 -6.4000 0.4600
v -2.8200 -6.4000 0.4600
v -2.8200 1.5000 0.4600
v -3.0000 1.5000 0.4600
f 69 72 71 70
f 73 74 75 76
f 69 70 74 73
f 70 71 75 74
f 71 72 76 75
f 72 69 73 76
g Side_Bay_-1_0
usemtl Trench
v -2.9400 -6.8000 -0.3500
v -2.7200 -6.8000 -0.3500
v -2.7200 -6.0800 -0.3500
v -2.9400 -6.0800 -0.3500
v -2.9400 -6.8000 0.0500
v -2.7200 -6.8000 0.0500
v -2.7200 -6.0800 0.0500
v -2.9400 -6.0800 0.0500
f 77 80 79 78
f 81 82 83 84
f 77 78 82 81
f 78 79 83 82
f 79 80 84 83
f 80 77 81 84
g Side_Bay_-1_1
usemtl Trench
v -2.9400 -5.4200 -0.3500
v -2.7200 -5.4200 -0.3500
v -2.7200 -4.7000 -0.3500
v -2.9400 -4.7000 -0.3500
v -2.9400 -5.4200 0.0500
v -2.7200 -5.4200 0.0500
v -2.7200 -4.7000 0.0500
v -2.9400 -4.7000 0.0500
f 85 88 87 86
f 89 90 91 92
f 85 86 90 89
f 86 87 91 90
f 87 88 92 91
f 88 85 89 92
g Side_Bay_-1_2
usemtl Trench
v -2.9400 -4.0400 -0.3500
v -2.7200 -4.0400 -0.3500
v -2.7200 -3.3200 -0.3500
v -2.9400 -3.3200 -0.3500
v -2.9400 -4.0400 0.0500
v -2.7200 -4.0400 0.0500
v -2.7200 -3.3200 0.0500
v -2.9400 -3.3200 0.0500
f 93 96 95 94
f 97 98 99 100
f 93 94 98 97
f 94 95 99 98
f 95 96 100 99
f 96 93 97 100
g Side_Bay_-1_3
usemtl Trench
v -2.9400 -2.6600 -0.3500
v -2.7200 -2.6600 -0.3500
v -2.7200 -1.9400 -0.3500
v -2.9400 -1.9400 -0.3500
v -2.9400 -2.6600 0.0500
v -2.7200 -2.6600 0.0500
v -2.7200 -1.9400 0.0500
v -2.9400 -1.9400 0.0500
f 101 104 103 102
f 105 106 107 108
f 101 102 106 105
f 102 103 107 106
f 103 104 108 107
f 104 101 105 108
g Side_Bay_-1_4
usemtl Trench
v -2.9400 -1.2800 -0.3500
v -2.7200 -1.2800 -0.3500
v -2.7200 -0.5600 -0.3500
v -2.9400 -0.5600 -0.3500
v -2.9400 -1.2800 0.0500
v -2.7200 -1.2800 0.0500
v -2.7200 -0.5600 0.0500
v -2.9400 -0.5600 0.0500
f 109 112 111 110
f 113 114 115 116
f 109 110 114 113
f 110 111 115 114
f 111 112 116 115
f 112 109 113 116
g Side_Bay_-1_5
usemtl Trench
v -2.9400 0.1000 -0.3500
v -2.7200 0.1000 -0.3500
v -2.7200 0.8200 -0.3500
v -2.9400 0.8200 -0.3500
v -2.9400 0.1000 0.0500
v -2.7200 0.1000 0.0500
v -2.7200 0.8200 0.0500
v -2.9400 0.8200 0.0500
f 117 120 119 118
f 121 122 123 124
f 117 118 122 121
f 118 119 123 122
f 119 120 124 123
f 120 117 121 124
g Side_Bay_-1_6
usemtl Trench
v -2.9400 1.4800 -0.3500
v -2.7200 1.4800 -0.3500
v -2.7200 2.2000 -0.3500
v -2.9400 2.2000 -0.3500
v -2.9400 1.4800 0.0500
v -2.7200 1.4800 0.0500
v -2.7200 2.2000 0.0500
v -2.9400 2.2000 0.0500
f 125 128 127 126
f 129 130 131 132
f 125 126 130 129
f 126 127 131 130
f 127 128 132 131
f 128 125 129 132
g Side_Bay_-1_7
usemtl Trench
v -2.9400 2.8600 -0.3500
v -2.7200 2.8600 -0.3500
v -2.7200 3.5800 -0.3500
v -2.9400 3.5800 -0.3500
v -2.9400 2.8600 0.0500
v -2.7200 2.8600 0.0500
v -2.7200 3.5800 0.0500
v -2.9400 3.5800 0.0500
f 133 136 135 134
f 137 138 139 140
f 133 134 138 137
f 134 135 139 138
f 135 136 140 139
f 136 133 137 140
g Side_Trench_1
usemtl Trench
v 2.4800 -7.8000 0.0500
v 2.8000 -7.8000 0.0500
v 2.8000 4.8000 0.0500
v 2.4800 4.8000 0.0500
v 2.4800 -7.8000 0.3100
v 2.8000 -7.8000 0.3100
v 2.8000 4.8000 0.3100
v 2.4800 4.8000 0.3100
f 141 144 143 142
f 145 146 147 148
f 141 142 146 145
f 142 143 147 146
f 143 144 148 147
f 144 141 145 148
g Outer_Rail_1
usemtl HullLight
v 2.8200 -6.4000 0.1600
v 3.0000 -6.4000 0.1600
v 3.0000 1.5000 0.1600
v 2.8200 1.5000 0.1600
v 2.8200 -6.4000 0.4600
v 3.0000 -6.4000 0.4600
v 3.0000 1.5000 0.4600
v 2.8200 1.5000 0.4600
f 149 152 151 150
f 153 154 155 156
f 149 150 154 153
f 150 151 155 154
f 151 152 156 155
f 152 149 153 156
g Side_Bay_1_0
usemtl Trench
v 2.7200 -6.8000 -0.3500
v 2.9400 -6.8000 -0.3500
v 2.9400 -6.0800 -0.3500
v 2.7200 -6.0800 -0.3500
v 2.7200 -6.8000 0.0500
v 2.9400 -6.8000 0.0500
v 2.9400 -6.0800 0.0500
v 2.7200 -6.0800 0.0500
f 157 160 159 158
f 161 162 163 164
f 157 158 162 161
f 158 159 163 162
f 159 160 164 163
f 160 157 161 164
g Side_Bay_1_1
usemtl Trench
v 2.7200 -5.4200 -0.3500
v 2.9400 -5.4200 -0.3500
v 2.9400 -4.7000 -0.3500
v 2.7200 -4.7000 -0.3500
v 2.7200 -5.4200 0.0500
v 2.9400 -5.4200 0.0500
v 2.9400 -4.7000 0.0500
v 2.7200 -4.7000 0.0500
f 165 168 167 166
f 169 170 171 172
f 165 166 170 169
f 166 167 171 170
f 167 168 172 171
f 168 165 169 172
g Side_Bay_1_2
usemtl Trench
v 2.7200 -4.0400 -0.3500
v 2.9400 -4.0400 -0.3500
v 2.9400 -3.3200 -0.3500
v 2.7200 -3.3200 -0.3500
v 2.7200 -4.0400 0.0500
v 2.9400 -4.0400 0.0500
v 2.9400 -3.3200 0.0500
v 2.7200 -3.3200 0.0500
f 173 176 175 174
f 177 178 179 180
f 173 174 178 177
f 174 175 179 178
f 175 176 180 179
f 176 173 177 180
g Side_Bay_1_3
usemtl Trench
v 2.7200 -2.6600 -0.3500
v 2.9400 -2.6600 -0.3500
v 2.9400 -1.9400 -0.3500
v 2.7200 -1.9400 -0.3500
v 2.7200 -2.6600 0.0500
v 2.9400 -2.6600 0.0500
v 2.9400 -1.9400 0.0500
v 2.7200 -1.9400 0.0500
f 181 184 183 182
f 185 186 187 188
f 181 182 186 185
f 182 183 187 186
f 183 184 188 187
f 184 181 185 188
g Side_Bay_1_4
usemtl Trench
v 2.7200 -1.2800 -0.3500
v 2.9400 -1.2800 -0.3500
v 2.9400 -0.5600 -0.3500
v 2.7200 -0.5600 -0.3500
v 2.7200 -1.2800 0.0500
v 2.9400 -1.2800 0.0500
v 2.9400 -0.5600 0.0500
v 2.7200 -0.5600 0.0500
f 189 192 191 190
f 193 194 195 196
f 189 190 194 193
f 190 191 195 194
f 191 192 196 195
f 192 189 193 196
g Side_Bay_1_5
usemtl Trench
v 2.7200 0.1000 -0.3500
v 2.9400 0.1000 -0.3500
v 2.9400 0.8200 -0.3500
v 2.7200 0.8200 -0.3500
v 2.7200 0.1000 0.0500
v 2.9400 0.1000 0.0500
v 2.9400 0.8200 0.0500
v 2.7200 0.8200 0.0500
f 197 200 199 198
f 201 202 203 204
f 197 198 202 201
f 198 199 203 202
f 199 200 204 203
f 200 197 201 204
g Side_Bay_1_6
usemtl Trench
v 2.7200 1.4800 -0.3500
v 2.9400 1.4800 -0.3500
v 2.9400 2.2000 -0.3500
v 2.7200 2.2000 -0.3500
v 2.7200 1.4800 0.0500
v 2.9400 1.4800 0.0500
v 2.9400 2.2000 0.0500
v 2.7200 2.2000 0.0500
f 205 208 207 206
f 209 210 211 212
f 205 206 210 209
f 206 207 211 210
f 207 208 212 211
f 208 205 209 212
g Side_Bay_1_7
usemtl Trench
v 2.7200 2.8600 -0.3500
v 2.9400 2.8600 -0.3500
v 2.9400 3.5800 -0.3500
v 2.7200 3.5800 -0.3500
v 2.7200 2.8600 0.0500
v 2.9400 2.8600 0.0500
v 2.9400 3.5800 0.0500
v 2.7200 3.5800 0.0500
f 213 216 215 214
f 217 218 219 220
f 213 214 218 217
f 214 215 219 218
f 215 216 220 219
f 216 213 217 220
g Center_Deck_1
usemtl HullLight
v -1.3500 -5.6000 0.4800
v 1.3500 -5.6000 0.4800
v 1.3500 2.7000 0.4800
v -1.3500 2.7000 0.4800
v -1.3500 -5.6000 0.7800
v 1.3500 -5.6000 0.7800
v 1.3500 2.7000 0.7800
v -1.3500 2.7000 0.7800
f 221 224 223 222
f 225 226 227 228
f 221 222 226 225
f 222 223 227 226
f 223 224 228 227
f 224 221 225 228
g Center_Deck_2
usemtl Hull
v -0.9500 -4.2000 0.7800
v 0.9500 -4.2000 0.7800
v 0.9500 1.8000 0.7800
v -0.9500 1.8000 0.7800
v -0.9500 -4.2000 1.0500
v 0.9500 -4.2000 1.0500
v 0.9500 1.8000 1.0500
v -0.9500 1.8000 1.0500
f 229 232 231 230
f 233 234 235 236
f 229 230 234 233
f 230 231 235 234
f 231 232 236 235
f 232 229 233 236
g Bridge_Base
usemtl HullLight
v -0.8200 -2.4000 1.0500
v 0.8200 -2.4000 1.0500
v 0.8200 -0.1500 1.0500
v -0.8200 -0.1500 1.0500
v -0.8200 -2.4000 1.3800
v 0.8200 -2.4000 1.3800
v 0.8200 -0.1500 1.3800
v -0.8200 -0.1500 1.3800
f 237 240 239 238
f 241 242 243 244
f 237 238 242 241
f 238 239 243 242
f 239 240 244 243
f 240 237 241 244
g Bridge_Tower
usemtl Hull
v -0.4800 -1.8500 1.3800
v 0.4800 -1.8500 1.3800
v 0.4800 -0.6500 1.3800
v -0.4800 -0.6500 1.3800
v -0.4800 -1.8500 1.9200
v 0.4800 -1.8500 1.9200
v 0.4800 -0.6500 1.9200
v -0.4800 -0.6500 1.9200
f 245 248 247 246
f 249 250 251 252
f 245 246 250 249
f 246 247 251 250
f 247 248 252 251
f 248 245 249 252
g Bridge_Crown
usemtl HullLight
v -0.6800 -1.5500 1.9200
v 0.6800 -1.5500 1.9200
v 0.6800 -0.8300 1.9200
v -0.6800 -0.8300 1.9200
v -0.6800 -1.5500 2.1200
v 0.6800 -1.5500 2.1200
v 0.6800 -0.8300 2.1200
v -0.6800 -0.8300 2.1200
f 253 256 255 254
f 257 258 259 260
f 253 254 258 257
f 254 255 259 258
f 255 256 260 259
f 256 253 257 260
g Rear_Block
usemtl Hull
v -1.0200 -6.9000 0.7800
v 1.0200 -6.9000 0.7800
v 1.0200 -5.0000 0.7800
v -1.0200 -5.0000 0.7800
v -1.0200 -6.9000 1.2800
v 1.0200 -6.9000 1.2800
v 1.0200 -5.0000 1.2800
v -1.0200 -5.0000 1.2800
f 261 264 263 262
f 265 266 267 268
f 261 262 266 265
f 262 263 267 266
f 263 264 268 267
f 264 261 265 268
g Rear_Tower
usemtl HullLight
v -0.5800 -6.3000 1.2800
v 0.5800 -6.3000 1.2800
v 0.5800 -5.3500 1.2800
v -0.5800 -5.3500 1.2800
v -0.5800 -6.3000 1.7200
v 0.5800 -6.3000 1.7200
v 0.5800 -5.3500 1.7200
v -0.5800 -5.3500 1.7200
f 269 272 271 270
f 273 274 275 276
f 269 270 274 273
f 270 271 275 274
f 271 272 276 275
f 272 269 273 276
g Deck_Ridge_0
usemtl HullLight
v -1.9000 -7.2000 0.4800
v 1.9000 -7.2000 0.4800
v 1.9000 -7.0000 0.4800
v -1.9000 -7.0000 0.4800
v -1.9000 -7.2000 0.6200
v 1.9000 -7.2000 0.6200
v 1.9000 -7.0000 0.6200
v -1.9000 -7.0000 0.6200
f 277 280 279 278
f 281 282 283 284
f 277 278 282 281
f 278 279 283 282
f 279 280 284 283
f 280 277 281 284
g Deck_Ridge_1
usemtl HullDark
v -1.9000 -5.6500 0.4800
v 1.9000 -5.6500 0.4800
v 1.9000 -5.4500 0.4800
v -1.9000 -5.4500 0.4800
v -1.9000 -5.6500 0.6200
v 1.9000 -5.6500 0.6200
v 1.9000 -5.4500 0.6200
v -1.9000 -5.4500 0.6200
f 285 288 287 286
f 289 290 291 292
f 285 286 290 289
f 286 287 291 290
f 287 288 292 291
f 288 285 289 292
g Deck_Ridge_2
usemtl HullLight
v -1.9000 -4.1000 0.4800
v 1.9000 -4.1000 0.4800
v 1.9000 -3.9000 0.4800
v -1.9000 -3.9000 0.4800
v -1.9000 -4.1000 0.6200
v 1.9000 -4.1000 0.6200
v 1.9000 -3.9000 0.6200
v -1.9000 -3.9000 0.6200
f 293 296 295 294
f 297 298 299 300
f 293 294 298 297
f 294 295 299 298
f 295 296 300 299
f 296 293 297 300
g Deck_Ridge_3
usemtl HullDark
v -1.9000 -2.5500 0.4800
v 1.9000 -2.5500 0.4800
v 1.9000 -2.3500 0.4800
v -1.9000 -2.3500 0.4800
v -1.9000 -2.5500 0.6200
v 1.9000 -2.5500 0.6200
v 1.9000 -2.3500 0.6200
v -1.9000 -2.3500 0.6200
f 301 304 303 302
f 305 306 307 308
f 301 302 306 305
f 302 303 307 306
f 303 304 308 307
f 304 301 305 308
g Deck_Ridge_4
usemtl HullLight
v -1.9000 -1.0000 0.4800
v 1.9000 -1.0000 0.4800
v 1.9000 -0.8000 0.4800
v -1.9000 -0.8000 0.4800
v -1.9000 -1.0000 0.6200
v 1.9000 -1.0000 0.6200
v 1.9000 -0.8000 0.6200
v -1.9000 -0.8000 0.6200
f 309 312 311 310
f 313 314 315 316
f 309 310 314 313
f 310 311 315 314
f 311 312 316 315
f 312 309 313 316
g Deck_Ridge_5
usemtl HullDark
v -1.9000 0.5500 0.4800
v 1.9000 0.5500 0.4800
v 1.9000 0.7500 0.4800
v -1.9000 0.7500 0.4800
v -1.9000 0.5500 0.6200
v 1.9000 0.5500 0.6200
v 1.9000 0.7500 0.6200
v -1.9000 0.7500 0.6200
f 317 320 319 318
f 321 322 323 324
f 317 318 322 321
f 318 319 323 322
f 319 320 324 323
f 320 317 321 324
g Deck_Ridge_6
usemtl HullLight
v -1.7240 2.1000 0.4800
v 1.7240 2.1000 0.4800
v 1.7240 2.3000 0.4800
v -1.7240 2.3000 0.4800
v -1.7240 2.1000 0.6200
v 1.7240 2.1000 0.6200
v 1.7240 2.3000 0.6200
v -1.7240 2.3000 0.6200
f 325 328 327 326
f 329 330 331 332
f 325 326 330 329
f 326 327 331 330
f 327 328 332 331
f 328 325 329 332
g Deck_Ridge_7
usemtl HullDark
v -1.4760 3.6500 0.4800
v 1.4760 3.6500 0.4800
v 1.4760 3.8500 0.4800
v -1.4760 3.8500 0.4800
v -1.4760 3.6500 0.6200
v 1.4760 3.6500 0.6200
v 1.4760 3.8500 0.6200
v -1.4760 3.8500 0.6200
f 333 336 335 334
f 337 338 339 340
f 333 334 338 337
f 334 335 339 338
f 335 336 340 339
f 336 333 337 340
g Deck_Ridge_8
usemtl HullLight
v -1.2280 5.2000 0.4800
v 1.2280 5.2000 0.4800
v 1.2280 5.4000 0.4800
v -1.2280 5.4000 0.4800
v -1.2280 5.2000 0.6200
v 1.2280 5.2000 0.6200
v 1.2280 5.4000 0.6200
v -1.2280 5.4000 0.6200
f 341 344 343 342
f 345 346 347 348
f 341 342 346 345
f 342 343 347 346
f 343 344 348 347
f 344 341 345 348
g Long_Panel_-1.72
usemtl HullDark
v -1.8000 -7.4000 0.4800
v -1.6400 -7.4000 0.4800
v -1.6400 5.7000 0.4800
v -1.8000 5.7000 0.4800
v -1.8000 -7.4000 0.5700
v -1.6400 -7.4000 0.5700
v -1.6400 5.7000 0.5700
v -1.8000 5.7000 0.5700
f 349 352 351 350
f 353 354 355 356
f 349 350 354 353
f 350 351 355 354
f 351 352 356 355
f 352 349 353 356
g Long_Panel_-1.22
usemtl HullDark
v -1.3000 -7.4000 0.4800
v -1.1400 -7.4000 0.4800
v -1.1400 5.7000 0.4800
v -1.3000 5.7000 0.4800
v -1.3000 -7.4000 0.5700
v -1.1400 -7.4000 0.5700
v -1.1400 5.7000 0.5700
v -1.3000 5.7000 0.5700
f 357 360 359 358
f 361 362 363 364
f 357 358 362 361
f 358 359 363 362
f 359 360 364 363
f 360 357 361 364
g Long_Panel_1.22
usemtl HullDark
v 1.1400 -7.4000 0.4800
v 1.3000 -7.4000 0.4800
v 1.3000 5.7000 0.4800
v 1.1400 5.7000 0.4800
v 1.1400 -7.4000 0.5700
v 1.3000 -7.4000 0.5700
v 1.3000 5.7000 0.5700
v 1.1400 5.7000 0.5700
f 365 368 367 366
f 369 370 371 372
f 365 366 370 369
f 366 367 371 370
f 367 368 372 371
f 368 365 369 372
g Long_Panel_1.72
usemtl HullDark
v 1.6400 -7.4000 0.4800
v 1.8000 -7.4000 0.4800
v 1.8000 5.7000 0.4800
v 1.6400 5.7000 0.4800
v 1.6400 -7.4000 0.5700
v 1.8000 -7.4000 0.5700
v 1.8000 5.7000 0.5700
v 1.6400 5.7000 0.5700
f 373 376 375 374
f 377 378 379 380
f 373 374 378 377
f 374 375 379 378
f 375 376 380 379
f 376 373 377 380
g Turret_0
usemtl HullLight
v -1.7900 -6.3000 0.5700
v -1.3100 -6.3000 0.5700
v -1.3100 -5.7000 0.5700
v -1.7900 -5.7000 0.5700
v -1.7900 -6.3000 0.8200
v -1.3100 -6.3000 0.8200
v -1.3100 -5.7000 0.8200
v -1.7900 -5.7000 0.8200
f 381 384 383 382
f 385 386 387 388
f 381 382 386 385
f 382 383 387 386
f 383 384 388 387
f 384 381 385 388
g Barrel_0
usemtl HullDark
v -1.6200 -5.7800 0.6700
v -1.4800 -5.7800 0.6700
v -1.4800 -5.2800 0.6700
v -1.6200 -5.2800 0.6700
v -1.6200 -5.7800 0.7600
v -1.4800 -5.7800 0.7600
v -1.4800 -5.2800 0.7600
v -1.6200 -5.2800 0.7600
f 389 392 391 390
f 393 394 395 396
f 389 390 394 393
f 390 391 395 394
f 391 392 396 395
f 392 389 393 396
g Turret_1
usemtl HullLight
v 1.3100 -6.3000 0.5700
v 1.7900 -6.3000 0.5700
v 1.7900 -5.7000 0.5700
v 1.3100 -5.7000 0.5700
v 1.3100 -6.3000 0.8200
v 1.7900 -6.3000 0.8200
v 1.7900 -5.7000 0.8200
v 1.3100 -5.7000 0.8200
f 397 400 399 398
f 401 402 403 404
f 397 398 402 401
f 398 399 403 402
f 399 400 404 403
f 400 397 401 404
g Barrel_1
usemtl HullDark
v 1.4800 -5.7800 0.6700
v 1.6200 -5.7800 0.6700
v 1.6200 -5.2800 0.6700
v 1.4800 -5.2800 0.6700
v 1.4800 -5.7800 0.7600
v 1.6200 -5.7800 0.7600
v 1.6200 -5.2800 0.7600
v 1.4800 -5.2800 0.7600
f 405 408 407 406
f 409 410 411 412
f 405 406 410 409
f 406 407 411 410
f 407 408 412 411
f 408 405 409 412
g Turret_2
usemtl HullLight
v -1.5900 -4.0000 0.5700
v -1.1100 -4.0000 0.5700
v -1.1100 -3.4000 0.5700
v -1.5900 -3.4000 0.5700
v -1.5900 -4.0000 0.8200
v -1.1100 -4.0000 0.8200
v -1.1100 -3.4000 0.8200
v -1.5900 -3.4000 0.8200
f 413 416 415 414
f 417 418 419 420
f 413 414 418 417
f 414 415 419 418
f 415 416 420 419
f 416 413 417 420
g Barrel_2
usemtl HullDark
v -1.4200 -3.4800 0.6700
v -1.2800 -3.4800 0.6700
v -1.2800 -2.9800 0.6700
v -1.4200 -2.9800 0.6700
v -1.4200 -3.4800 0.7600
v -1.2800 -3.4800 0.7600
v -1.2800 -2.9800 0.7600
v -1.4200 -2.9800 0.7600
f 421 424 423 422
f 425 426 427 428
f 421 422 426 425
f 422 423 427 426
f 423 424 428 427
f 424 421 425 428
g Turret_3
usemtl HullLight
v 1.1100 -4.0000 0.5700
v 1.5900 -4.0000 0.5700
v 1.5900 -3.4000 0.5700
v 1.1100 -3.4000 0.5700
v 1.1100 -4.0000 0.8200
v 1.5900 -4.0000 0.8200
v 1.5900 -3.4000 0.8200
v 1.1100 -3.4000 0.8200
f 429 432 431 430
f 433 434 435 436
f 429 430 434 433
f 430 431 435 434
f 431 432 436 435
f 432 429 433 436
g Barrel_3
usemtl HullDark
v 1.2800 -3.4800 0.6700
v 1.4200 -3.4800 0.6700
v 1.4200 -2.9800 0.6700
v 1.2800 -2.9800 0.6700
v 1.2800 -3.4800 0.7600
v 1.4200 -3.4800 0.7600
v 1.4200 -2.9800 0.7600
v 1.2800 -2.9800 0.7600
f 437 440 439 438
f 441 442 443 444
f 437 438 442 441
f 438 439 443 442
f 439 440 444 443
f 440 437 441 444
g Turret_4
usemtl HullLight
v -1.3900 -0.1000 0.5700
v -0.9100 -0.1000 0.5700
v -0.9100 0.5000 0.5700
v -1.3900 0.5000 0.5700
v -1.3900 -0.1000 0.8200
v -0.9100 -0.1000 0.8200
v -0.9100 0.5000 0.8200
v -1.3900 0.5000 0.8200
f 445 448 447 446
f 449 450 451 452
f 445 446 450 449
f 446 447 451 450
f 447 448 452 451
f 448 445 449 452
g Barrel_4
usemtl HullDark
v -1.2200 0.4200 0.6700
v -1.0800 0.4200 0.6700
v -1.0800 0.9200 0.6700
v -1.2200 0.9200 0.6700
v -1.2200 0.4200 0.7600
v -1.0800 0.4200 0.7600
v -1.0800 0.9200 0.7600
v -1.2200 0.9200 0.7600
f 453 456 455 454
f 457 458 459 460
f 453 454 458 457
f 454 455 459 458
f 455 456 460 459
f 456 453 457 460
g Turret_5
usemtl HullLight
v 0.9100 -0.1000 0.5700
v 1.3900 -0.1000 0.5700
v 1.3900 0.5000 0.5700
v 0.9100 0.5000 0.5700
v 0.9100 -0.1000 0.8200
v 1.3900 -0.1000 0.8200
v 1.3900 0.5000 0.8200
v 0.9100 0.5000 0.8200
f 461 464 463 462
f 465 466 467 468
f 461 462 466 465
f 462 463 467 466
f 463 464 468 467
f 464 461 465 468
g Barrel_5
usemtl HullDark
v 1.0800 0.4200 0.6700
v 1.2200 0.4200 0.6700
v 1.2200 0.9200 0.6700
v 1.0800 0.9200 0.6700
v 1.0800 0.4200 0.7600
v 1.2200 0.4200 0.7600
v 1.2200 0.9200 0.7600
v 1.0800 0.9200 0.7600
f 469 472 471 470
f 473 474 475 476
f 469 470 474 473
f 470 471 475 474
f 471 472 476 475
f 472 469 473 476
g Turret_6
usemtl HullLight
v -0.9900 3.0000 0.5700
v -0.5100 3.0000 0.5700
v -0.5100 3.6000 0.5700
v -0.9900 3.6000 0.5700
v -0.9900 3.0000 0.8200
v -0.5100 3.0000 0.8200
v -0.5100 3.6000 0.8200
v -0.9900 3.6000 0.8200
f 477 480 479 478
f 481 482 483 484
f 477 478 482 481
f 478 479 483 482
f 479 480 484 483
f 480 477 481 484
g Barrel_6
usemtl HullDark
v -0.8200 3.5200 0.6700
v -0.6800 3.5200 0.6700
v -0.6800 4.0200 0.6700
v -0.8200 4.0200 0.6700
v -0.8200 3.5200 0.7600
v -0.6800 3.5200 0.7600
v -0.6800 4.0200 0.7600
v -0.8200 4.0200 0.7600
f 485 488 487 486
f 489 490 491 492
f 485 486 490 489
f 486 487 491 490
f 487 488 492 491
f 488 485 489 492
g Turret_7
usemtl HullLight
v 0.5100 3.0000 0.5700
v 0.9900 3.0000 0.5700
v 0.9900 3.6000 0.5700
v 0.5100 3.6000 0.5700
v 0.5100 3.0000 0.8200
v 0.9900 3.0000 0.8200
v 0.9900 3.6000 0.8200
v 0.5100 3.6000 0.8200
f 493 496 495 494
f 497 498 499 500
f 493 494 498 497
f 494 495 499 498
f 495 496 500 499
f 496 493 497 500
g Barrel_7
usemtl HullDark
v 0.6800 3.5200 0.6700
v 0.8200 3.5200 0.6700
v 0.8200 4.0200 0.6700
v 0.6800 4.0200 0.6700
v 0.6800 3.5200 0.7600
v 0.8200 3.5200 0.7600
v 0.8200 4.0200 0.7600
v 0.6800 4.0200 0.7600
f 501 504 503 502
f 505 506 507 508
f 501 502 506 505
f 502 503 507 506
f 503 504 508 507
f 504 501 505 508
g Aft_Yellow_-1.75
usemtl MarkingYellow
v -1.9500 -9.2500 0.4900
v -1.5500 -9.2500 0.4900
v -1.5500 -7.7500 0.4900
v -1.9500 -7.7500 0.4900
v -1.9500 -9.2500 0.5500
v -1.5500 -9.2500 0.5500
v -1.5500 -7.7500 0.5500
v -1.9500 -7.7500 0.5500
f 509 512 511 510
f 513 514 515 516
f 509 510 514 513
f 510 511 515 514
f 511 512 516 515
f 512 509 513 516
g Aft_Yellow_-1.15
usemtl MarkingYellow
v -1.3500 -9.2500 0.4900
v -0.9500 -9.2500 0.4900
v -0.9500 -7.7500 0.4900
v -1.3500 -7.7500 0.4900
v -1.3500 -9.2500 0.5500
v -0.9500 -9.2500 0.5500
v -0.9500 -7.7500 0.5500
v -1.3500 -7.7500 0.5500
f 517 520 519 518
f 521 522 523 524
f 517 518 522 521
f 518 519 523 522
f 519 520 524 523
f 520 517 521 524
g Aft_Yellow_-0.55
usemtl MarkingYellow
v -0.7500 -9.2500 0.4900
v -0.3500 -9.2500 0.4900
v -0.3500 -7.7500 0.4900
v -0.7500 -7.7500 0.4900
v -0.7500 -9.2500 0.5500
v -0.3500 -9.2500 0.5500
v -0.3500 -7.7500 0.5500
v -0.7500 -7.7500 0.5500
f 525 528 527 526
f 529 530 531 532
f 525 526 530 529
f 526 527 531 530
f 527 528 532 531
f 528 525 529 532
g Aft_Yellow_0.55
usemtl MarkingYellow
v 0.3500 -9.2500 0.4900
v 0.7500 -9.2500 0.4900
v 0.7500 -7.7500 0.4900
v 0.3500 -7.7500 0.4900
v 0.3500 -9.2500 0.5500
v 0.7500 -9.2500 0.5500
v 0.7500 -7.7500 0.5500
v 0.3500 -7.7500 0.5500
f 533 536 535 534
f 537 538 539 540
f 533 534 538 537
f 534 535 539 538
f 535 536 540 539
f 536 533 537 540
g Aft_Yellow_1.15
usemtl MarkingYellow
v 0.9500 -9.2500 0.4900
v 1.3500 -9.2500 0.4900
v 1.3500 -7.7500 0.4900
v 0.9500 -7.7500 0.4900
v 0.9500 -9.2500 0.5500
v 1.3500 -9.2500 0.5500
v 1.3500 -7.7500 0.5500
v 0.9500 -7.7500 0.5500
f 541 544 543 542
f 545 546 547 548
f 541 542 546 545
f 542 543 547 546
f 543 544 548 547
f 544 541 545 548
g Aft_Yellow_1.75
usemtl MarkingYellow
v 1.5500 -9.2500 0.4900
v 1.9500 -9.2500 0.4900
v 1.9500 -7.7500 0.4900
v 1.5500 -7.7500 0.4900
v 1.5500 -9.2500 0.5500
v 1.9500 -9.2500 0.5500
v 1.9500 -7.7500 0.5500
v 1.5500 -7.7500 0.5500
f 549 552 551 550
f 553 554 555 556
f 549 550 554 553
f 550 551 555 554
f 551 552 556 555
f 552 549 553 556
g Bow_Yellow_-0.82
usemtl MarkingYellow
v -0.9500 7.1000 0.4500
v -0.6900 7.1000 0.4500
v -0.6900 9.0000 0.4500
v -0.9500 9.0000 0.4500
v -0.9500 7.1000 0.5300
v -0.6900 7.1000 0.5300
v -0.6900 9.0000 0.5300
v -0.9500 9.0000 0.5300
f 557 560 559 558
f 561 562 563 564
f 557 558 562 561
f 558 559 563 562
f 559 560 564 563
f 560 557 561 564
g Bow_Yellow_-0.42
usemtl MarkingYellow
v -0.5500 7.1000 0.4500
v -0.2900 7.1000 0.4500
v -0.2900 9.0000 0.4500
v -0.5500 9.0000 0.4500
v -0.5500 7.1000 0.5300
v -0.2900 7.1000 0.5300
v -0.2900 9.0000 0.5300
v -0.5500 9.0000 0.5300
f 565 568 567 566
f 569 570 571 572
f 565 566 570 569
f 566 567 571 570
f 567 568 572 571
f 568 565 569 572
g Bow_Yellow_0.42
usemtl MarkingYellow
v 0.2900 7.1000 0.4500
v 0.5500 7.1000 0.4500
v 0.5500 9.0000 0.4500
v 0.2900 9.0000 0.4500
v 0.2900 7.1000 0.5300
v 0.5500 7.1000 0.5300
v 0.5500 9.0000 0.5300
v 0.2900 9.0000 0.5300
f 573 576 575 574
f 577 578 579 580
f 573 574 578 577
f 574 575 579 578
f 575 576 580 579
f 576 573 577 580
g Bow_Yellow_0.82
usemtl MarkingYellow
v 0.6900 7.1000 0.4500
v 0.9500 7.1000 0.4500
v 0.9500 9.0000 0.4500
v 0.6900 9.0000 0.4500
v 0.6900 7.1000 0.5300
v 0.9500 7.1000 0.5300
v 0.9500 9.0000 0.5300
v 0.6900 9.0000 0.5300
f 581 584 583 582
f 585 586 587 588
f 581 582 586 585
f 582 583 587 586
f 583 584 588 587
f 584 581 585 588
g Engine_-1.65
usemtl Engine
v -1.9900 -10.2800 -0.6200
v -1.3100 -10.2800 -0.6200
v -1.3100 -9.7200 -0.6200
v -1.9900 -9.7200 -0.6200
v -1.9900 -10.2800 -0.0500
v -1.3100 -10.2800 -0.0500
v -1.3100 -9.7200 -0.0500
v -1.9900 -9.7200 -0.0500
f 589 592 591 590
f 593 594 595 596
f 589 590 594 593
f 590 591 595 594
f 591 592 596 595
f 592 589 593 596
g Engine_-0.55
usemtl Engine
v -0.8900 -10.2800 -0.6200
v -0.2100 -10.2800 -0.6200
v -0.2100 -9.7200 -0.6200
v -0.8900 -9.7200 -0.6200
v -0.8900 -10.2800 -0.0500
v -0.2100 -10.2800 -0.0500
v -0.2100 -9.7200 -0.0500
v -0.8900 -9.7200 -0.0500
f 597 600 599 598
f 601 602 603 604
f 597 598 602 601
f 598 599 603 602
f 599 600 604 603
f 600 597 601 604
g Engine_0.55
usemtl Engine
v 0.2100 -10.2800 -0.6200
v 0.8900 -10.2800 -0.6200
v 0.8900 -9.7200 -0.6200
v 0.2100 -9.7200 -0.6200
v 0.2100 -10.2800 -0.0500
v 0.8900 -10.2800 -0.0500
v 0.8900 -9.7200 -0.0500
v 0.2100 -9.7200 -0.0500
f 605 608 607 606
f 609 610 611 612
f 605 606 610 609
f 606 607 611 610
f 607 608 612 611
f 608 605 609 612
g Engine_1.65
usemtl Engine
v 1.3100 -10.2800 -0.6200
v 1.9900 -10.2800 -0.6200
v 1.9900 -9.7200 -0.6200
v 1.3100 -9.7200 -0.6200
v 1.3100 -10.2800 -0.0500
v 1.9900 -10.2800 -0.0500
v 1.9900 -9.7200 -0.0500
v 1.3100 -9.7200 -0.0500
f 613 616 615 614
f 617 618 619 620
f 613 614 618 617
f 614 615 619 618
f 615 616 620 619
f 616 613 617 620
